<svg xmlns="http://www.w3.org/2000/svg" version="1.1" viewBox="-5.0 -10.0 110.0 135.0">
 <path d="m89.457 40.105c-1.5586 1.5586-4.082 1.5586-5.6367 0-9.0508-9.0469-21.059-14.031-33.816-14.031-12.758 0-24.77 4.9844-33.82 14.031-1.5586 1.5586-4.082 1.5586-5.6367 0-1.5586-1.5586-1.5586-4.082 0-5.6406 10.555-10.555 24.57-16.367 39.457-16.367 14.887 0 28.898 5.8125 39.457 16.367 1.5586 1.5586 1.5586 4.082 0 5.6406zm-39.457-6.0547c-10.633 0-20.645 4.1523-28.184 11.691-1.5586 1.5586-1.5586 4.082 0 5.6406 1.5586 1.5586 4.082 1.5586 5.6406 0 6.0352-6.0312 14.039-9.3555 22.543-9.3555s16.512 3.3203 22.543 9.3555c1.5586 1.5586 4.082 1.5586 5.6367 0 1.5586-1.5586 1.5586-4.082 0-5.6406-7.5391-7.5391-17.547-11.691-28.184-11.691zm0 15.949c-6.3828 0-12.387 2.4922-16.91 7.0117-1.5586 1.5586-1.5586 4.082 0 5.6406s4.082 1.5586 5.6367 0c3.0156-3.0156 7.0195-4.6758 11.27-4.6758 4.2539 0 8.2539 1.6641 11.27 4.6758 1.5586 1.5586 4.082 1.5586 5.6367 0 1.5586-1.5586 1.5586-4.082 0-5.6406-4.5234-4.5195-10.527-7.0117-16.91-7.0117zm0 15.949c-4.3984 0-7.9766 3.5781-7.9766 7.9766 0 4.3945 3.5781 7.9766 7.9766 7.9766s7.9766-3.5781 7.9766-7.9766c0-4.3945-3.5781-7.9766-7.9766-7.9766z"/>
<text x="0.0" y="117.5" font-size="5.0" font-weight="bold" font-family="Arbeit Regular, Helvetica, Arial-Unicode, Arial, Sans-serif" fill="#000000">Created by Puspa Kusuma</text><text x="0.0" y="122.5" font-size="5.0" font-weight="bold" font-family="Arbeit Regular, Helvetica, Arial-Unicode, Arial, Sans-serif" fill="#000000">from Noun Project</text></svg>