<svg xmlns="http://www.w3.org/2000/svg" xmlns:xlink="http://www.w3.org/1999/xlink" version="1.1" x="0px" y="0px" viewBox="0 0 100 125" enable-background="new 0 0 100 100" xml:space="preserve"><rect x="5" y="4.999" fill="none" width="90" height="90.001"/><path d="M78.604,73.273L64.156,37.724L50.214,5.191C50.177,5.105,50.094,5.05,50,5.05c-0.093,0-0.176,0.055-0.213,0.141  L35.843,37.728L21.397,73.273c-0.011,0.029-0.017,0.059-0.017,0.09v4.143c0,0.059,0.021,0.115,0.06,0.156l2.513,2.764  c0.044,0.049,0.107,0.078,0.174,0.076c0.066,0,0.129-0.029,0.173-0.08l13.393-15.357l0.651,2.822  c0.01,0.041,0.029,0.076,0.057,0.107l6.94,7.434L41.49,86.98c-0.01,0.027-0.014,0.059-0.012,0.088l0.503,7.662  c0.007,0.104,0.08,0.189,0.181,0.211c0.101,0.023,0.204-0.023,0.254-0.113L50,81.127l7.586,13.701  c0.041,0.076,0.119,0.119,0.202,0.119c0.017,0,0.034-0.002,0.051-0.006c0.101-0.021,0.175-0.107,0.182-0.211l0.502-7.662  c0.002-0.029-0.002-0.061-0.011-0.088l-3.851-11.553l6.939-7.434c0.027-0.031,0.048-0.066,0.057-0.107l0.652-2.822l13.392,15.357  c0.044,0.051,0.107,0.08,0.173,0.08c0.001,0,0.001,0,0.002,0c0.066,0,0.128-0.027,0.172-0.076l2.513-2.764  c0.038-0.041,0.06-0.098,0.06-0.156v-4.143C78.62,73.332,78.615,73.303,78.604,73.273z"/><text x="0" y="115" fill="#000000" font-size="5px" font-weight="bold" font-family="'Helvetica Neue', Helvetica, Arial-Unicode, Arial, Sans-serif">Created by Tinashe Mugayi</text><text x="0" y="120" fill="#000000" font-size="5px" font-weight="bold" font-family="'Helvetica Neue', Helvetica, Arial-Unicode, Arial, Sans-serif">from the Noun Project</text></svg>