<svg xmlns="http://www.w3.org/2000/svg" version="1.1" viewBox="-5.0 -10.0 110.0 135.0">
 <path d="m86.586 68.816h-79.359c-1.0781 0-1.9531-0.875-1.9531-1.9531v-33.762c0-1.0781 0.875-1.9531 1.9531-1.9531h79.359c1.0781 0 1.9531 0.875 1.9531 1.9531v33.762c0 1.0781-0.875 1.9531-1.9531 1.9531zm-52.652-29.145h-3.9141c-1.0781 0-1.9531 0.875-1.9531 1.9531v16.719c0 1.0781 0.875 1.9531 1.9531 1.9531h3.9141c1.0781 0 1.9531-0.875 1.9531-1.9531v-16.719c0-1.0781-0.875-1.9531-1.9531-1.9531zm14.598 0h-3.9141c-1.0781 0-1.9531 0.875-1.9531 1.9531v16.719c0 1.0781 0.875 1.9531 1.9531 1.9531h3.9141c1.0781 0 1.9531-0.875 1.9531-1.9531v-16.719c0-1.0781-0.875-1.9531-1.9531-1.9531zm-29.191 0h-3.9141c-1.0781 0-1.9531 0.875-1.9531 1.9531v16.719c0 1.0781 0.875 1.9531 1.9531 1.9531h3.9141c1.0781 0 1.9531-0.875 1.9531-1.9531v-16.719c0-1.0781-0.875-1.9531-1.9531-1.9531zm43.789 0h-3.9141c-1.0781 0-1.9531 0.875-1.9531 1.9531v16.719c0 1.0781 0.875 1.9531 1.9531 1.9531h3.9141c1.0781 0 1.9531-0.875 1.9531-1.9531v-16.719c0-1.0781-0.875-1.9531-1.9531-1.9531z" fill-rule="evenodd"/>
 <path d="m92.746 42.422c0.51953 0 1.0156 0.20703 1.3789 0.57031 0.36719 0.36719 0.57031 0.86328 0.57031 1.3789v11.219c0 0.51953-0.20703 1.0156-0.57031 1.3789-0.36719 0.36719-0.86328 0.57031-1.3789 0.57031h-6.1602v-15.121h6.1602z" fill-rule="evenodd"/>
<text x="0.0" y="117.5" font-size="5.0" font-weight="bold" font-family="Arbeit Regular, Helvetica, Arial-Unicode, Arial, Sans-serif" fill="#000000">by Muhammad Nur Auliady Pamungkas</text><text x="0.0" y="122.5" font-size="5.0" font-weight="bold" font-family="Arbeit Regular, Helvetica, Arial-Unicode, Arial, Sans-serif" fill="#000000">from Noun Project</text></svg>