<svg xmlns="http://www.w3.org/2000/svg" version="1.1" viewBox="-5.0 -10.0 110.0 135.0">
 <path d="m58.066 25.117c-4.4648-4.3242-11.668-4.3242-16.133 0-4.5234 4.375-4.5234 11.52 0 15.895 1.4297 1.3867 3.1406 2.3242 4.9414 2.8203v47.836c0 1.7227 1.3984 3.125 3.125 3.125s3.125-1.4023 3.125-3.125v-47.836c1.8008-0.49609 3.5117-1.4336 4.9414-2.8203 4.5234-4.375 4.5234-11.52 0-15.895z" fill-rule="evenodd"/>
 <path d="m28.574 6.0586c1.2539 1.1836 1.3125 3.1641 0.12891 4.418-11.883 12.605-11.883 33.109 0 45.715 1.1836 1.2539 1.125 3.2305-0.12891 4.4141-1.2578 1.1875-3.2344 1.1289-4.418-0.12891-14.152-15.012-14.152-39.277 0-54.285 1.1836-1.2578 3.1602-1.3164 4.418-0.13281zm42.852 0c1.2578-1.1836 3.2344-1.125 4.418 0.13281 14.152 15.008 14.152 39.273 0 54.285-1.1836 1.2578-3.1602 1.3164-4.418 0.12891-1.2539-1.1836-1.3125-3.1602-0.12891-4.4141 11.883-12.605 11.883-33.109 0-45.715-1.1836-1.2539-1.125-3.2344 0.12891-4.418z" fill-rule="evenodd"/>
 <path d="m37.477 16.539c1.2227 1.2227 1.2227 3.1992 0 4.4219-6.9141 6.9141-6.9141 18.125 0 25.043 1.2227 1.2188 1.2227 3.1992 0 4.418-1.2188 1.2227-3.1992 1.2227-4.418 0-9.3555-9.3555-9.3555-24.523 0-33.883 1.2188-1.2188 3.1992-1.2188 4.418 0zm25.047 0c1.2188-1.2188 3.1992-1.2188 4.418 0 9.3555 9.3594 9.3555 24.527 0 33.883-1.2188 1.2227-3.1992 1.2227-4.418 0-1.2227-1.2188-1.2227-3.1992 0-4.418 6.9141-6.918 6.9141-18.129 0-25.043-1.2227-1.2227-1.2227-3.1992 0-4.4219z" fill-rule="evenodd"/>
<text x="0.0" y="117.5" font-size="5.0" font-weight="bold" font-family="Arbeit Regular, Helvetica, Arial-Unicode, Arial, Sans-serif" fill="#000000">Created by Reza Nur</text><text x="0.0" y="122.5" font-size="5.0" font-weight="bold" font-family="Arbeit Regular, Helvetica, Arial-Unicode, Arial, Sans-serif" fill="#000000">from Noun Project</text></svg>