<svg xmlns="http://www.w3.org/2000/svg" version="1.1" viewBox="-5.0 -10.0 110.0 135.0">
 <path d="m58.762 50 16.383-17.305c2.0234-2.1289 2-5.4609-0.035156-7.5664l-20.273-20.953c-3.4258-3.5312-9.4023-1.1094-9.4023 3.8125v29.23l-12.809-12.359c-2.1406-2.082-5.5547-2.0469-7.6719 0.058594-1.0625 1.0742-1.6016 2.4805-1.6016 3.8711 0 1.4492 0.57422 2.8867 1.707 3.9766l18.148 17.234-18.145 17.234c-2.2344 2.1289-2.2812 5.6602-0.10547 7.8477 1.0742 1.0625 2.4688 1.6016 3.8711 1.6016 1.3672 0 2.7461-0.51562 3.8008-1.543l12.805-12.371v29.242c0 4.9219 5.9766 7.3438 9.4023 3.8125l20.273-20.953c2.0352-2.1055 2.0586-5.4375 0.035156-7.5664zm-2.2227-28.32 7.2148 7.2148-7.2148 7.2148zm0 56.652v-14.441l7.2148 7.2148z"/>
<text x="0.0" y="117.5" font-size="5.0" font-weight="bold" font-family="Arbeit Regular, Helvetica, Arial-Unicode, Arial, Sans-serif" fill="#000000">Created by kiraserly</text><text x="0.0" y="122.5" font-size="5.0" font-weight="bold" font-family="Arbeit Regular, Helvetica, Arial-Unicode, Arial, Sans-serif" fill="#000000">from Noun Project</text></svg>