<svg xmlns="http://www.w3.org/2000/svg" viewBox="0 0 100 125" fill="none" x="0px" y="0px"><path fill-rule="evenodd" clip-rule="evenodd" d="M61 16C61 22.0751 56.0751 27 50 27C43.9249 27 39 22.0751 39 16C39 9.92487 43.9249 5 50 5C56.0751 5 61 9.92487 61 16ZM61.6667 38.6825C69.8306 38.2311 77.5868 37.2987 84.0658 35.8851C86.7638 35.2964 88.4737 32.6321 87.8851 29.9342C87.2964 27.2362 84.6321 25.5263 81.9342 26.1149C64.3031 29.9617 35.6969 29.9617 18.0658 26.1149C15.3679 25.5263 12.7036 27.2362 12.1149 29.9342C11.5263 32.6321 13.2362 35.2964 15.9342 35.8851C22.5893 37.3371 30.592 38.2815 39 38.7182V38.7379V38.8013V38.8648V38.9283V38.9919V39.0555V39.1191V39.1827V39.2464V39.3101V39.3739V39.4377V39.5015V39.5653V39.6292V39.6931V39.757V39.8209V39.8849V39.9489V40.0129V40.077V40.141V40.2051V40.2692V40.3333V40.3975V40.4617V40.5258V40.59V40.6543V40.7185V40.7827V40.847V40.9113V40.9756V41.0399V41.1042V41.1685V41.2328V41.2972V41.3615V41.4259V41.4902V41.5546V41.619V41.6834V41.7478V41.8122V41.8765V41.9409V42.0053V42.0697V42.1341V42.1985V42.2629V42.3273V42.3917V42.4561V42.5205V42.5848V42.6492V42.7136V42.7779V42.8423V42.9066V42.9709V43.0352V43.0995V43.1638V43.2281V43.2924V43.3566V43.4209V43.4851V43.5493V43.6135V43.6777V43.7418V43.806V43.8701V43.9342V43.9982V44.0623V44.1263V44.1903V44.2543V44.3183V44.3822V44.4461V44.51V44.5738V44.6377V44.7015V44.7652V44.8289V44.8926V44.9563V45.0199V45.0835V45.1471V45.2106V45.2741V45.3376V45.401V45.4644V45.5278V45.5911V45.6543V45.7176V45.7807V45.8439V45.907V45.97V46.0331V46.096V46.1589V46.2218V46.2846V46.3474V46.4101V46.4728V46.5354V46.598V46.6606V46.723V46.7854V46.8478V46.9101V46.9724V47.0346V47.0967V47.1588V47.2208V47.2828V47.3447V47.4066V47.4684V47.5301V47.5917V47.6533V47.7149V47.7763V47.8378V47.8991V47.9604V48.0216V48.0827V48.1438V48.2048V48.2657V48.3266V48.3873V48.448V48.5087V48.5692V48.6297V48.6901V48.7505V48.8107V48.8709V48.931V48.991V49.051V49.1108V49.1706V49.2303V49.2899V49.3495V49.4089V49.4683V49.5276V49.5868V49.6459V49.7049V49.7638V49.8226V49.8814V49.94V49.9986V50.0571V50.1154V50.1737V50.2319V50.29V50.348V50.4059V50.4637V50.5214V50.579V50.6365V50.6939V50.7512V50.8085V50.8656V50.9226V50.9794V51.0362V51.0929V51.1495V51.206V51.2623V51.3186V51.3747V51.4308V51.4867V51.5425V51.5982V51.6538V51.7093V51.7646V51.8199V51.875V51.93V51.9849V52.0397V52.0944V52.1489V52.2034V52.2577V52.3118V52.3659V52.4198V52.4736V52.5273V52.5809V52.6343V52.6876V52.7408V52.7939V52.8468V52.8996V52.9523V53.0048V53.0572V53.1095V53.1616V53.2136V53.2655V53.3173V53.3689V53.4203V53.4716V53.5228V53.5739V53.6248V53.6756V53.7262V53.7767V53.827V53.8772V53.9273V53.9772V54.027V54.0766V54.1261V54.1754V54.2246V54.2736V54.3225V54.3712V54.4198V54.4682V54.5165V54.5646V54.6126V54.6604V54.7081V54.7556V54.8029V54.8501V54.8971V54.944V54.9907V55.0373V55.0836V55.1299V55.1759V55.2218V55.2676V55.3131V55.3585V55.4038V55.4488V55.4937V55.5385V55.583V55.6274V55.6717V55.7157V55.7596V55.8033V55.8468V55.8902V55.9334V55.9764V56.0192V56.0619V56.1044V56.1467V56.1888V56.2307V56.2725V56.314V56.3554V56.3967V56.4377V56.4785V56.5192V56.5596V56.5999V56.64V56.6799V56.7197V56.7592V56.7985V56.8377V56.8766V56.9154V56.954V56.9923V57.0305V57.0685V57.1063V57.1439V57.1813V57.2185V57.2555V57.2923V57.3289V57.3653V57.4015V57.4375V57.4733V57.5089V57.5442V57.5794V57.6144V57.6492V57.6837V57.7181V57.7522V57.7861V57.8198V57.8533V57.8866V57.9197V57.9526V57.9852V58.0177V58.0499V58.0819V58.1137V58.1452V58.1766V58.2077V58.2386V58.2693V58.2998V58.33V58.3601V58.3899V58.4194V58.4488V58.4779V58.5068V58.5355V58.5639V58.5922V58.6201V58.6479V58.6754V58.7027V58.7298V58.7566V58.7832V58.8095V58.8357V58.8615V58.8872V58.9126V58.9378V58.9627V58.9874V59.0119V59.0361V59.0601V59.0838V59.1073V59.1305V59.1535V59.1763V59.1988V59.221V59.243V59.2648V59.2863V59.3076V59.3286V59.3493V59.3699V59.3901V59.4101V59.4299V59.4494V59.4686V59.4876V59.5063V59.5248V59.543V59.5592L32.132 88.8589C31.5017 91.5474 33.1703 94.2378 35.8589 94.868C38.5474 95.4983 41.2378 93.8297 41.868 91.1411L47.9635 65.1374H52.7032L58.7986 91.1411C59.4288 93.8297 62.1192 95.4983 64.8078 94.868C67.4963 94.2378 69.1649 91.5474 68.5347 88.8589L61.6667 59.5592V59.543V59.5248V59.5063V59.4876V59.4686V59.4494V59.4299V59.4101V59.3901V59.3699V59.3493V59.3286V59.3076V59.2863V59.2648V59.243V59.221V59.1988V59.1763V59.1535V59.1305V59.1073V59.0838V59.0601V59.0361V59.0119V58.9874V58.9627V58.9378V58.9126V58.8872V58.8615V58.8357V58.8095V58.7832V58.7566V58.7298V58.7027V58.6754V58.6479V58.6201V58.5922V58.5639V58.5355V58.5068V58.4779V58.4488V58.4194V58.3899V58.3601V58.33V58.2998V58.2693V58.2386V58.2077V58.1766V58.1452V58.1137V58.0819V58.0499V58.0177V57.9852V57.9526V57.9197V57.8866V57.8533V57.8198V57.7861V57.7522V57.7181V57.6837V57.6492V57.6144V57.5794V57.5442V57.5089V57.4733V57.4375V57.4015V57.3653V57.3289V57.2923V57.2555V57.2185V57.1813V57.1439V57.1063V57.0685V57.0305V56.9923V56.954V56.9154V56.8766V56.8377V56.7985V56.7592V56.7197V56.6799V56.64V56.5999V56.5596V56.5192V56.4785V56.4377V56.3967V56.3554V56.314V56.2725V56.2307V56.1888V56.1467V56.1044V56.0619V56.0192V55.9764V55.9334V55.8902V55.8468V55.8033V55.7596V55.7157V55.6717V55.6274V55.583V55.5385V55.4937V55.4488V55.4038V55.3585V55.3131V55.2676V55.2218V55.1759V55.1299V55.0836V55.0373V54.9907V54.944V54.8971V54.8501V54.8029V54.7556V54.7081V54.6604V54.6126V54.5646V54.5165V54.4682V54.4198V54.3712V54.3225V54.2736V54.2246V54.1754V54.1261V54.0766V54.027V53.9772V53.9273V53.8772V53.827V53.7767V53.7262V53.6756V53.6248V53.5739V53.5228V53.4716V53.4203V53.3689V53.3173V53.2655V53.2136V53.1616V53.1095V53.0572V53.0048V52.9523V52.8996V52.8468V52.7939V52.7408V52.6876V52.6343V52.5809V52.5273V52.4736V52.4198V52.3659V52.3118V52.2577V52.2034V52.1489V52.0944V52.0397V51.9849V51.93V51.875V51.8199V51.7646V51.7093V51.6538V51.5982V51.5425V51.4867V51.4308V51.3747V51.3186V51.2623V51.206V51.1495V51.0929V51.0362V50.9794V50.9226V50.8656V50.8085V50.7512V50.6939V50.6365V50.579V50.5214V50.4637V50.4059V50.348V50.29V50.2319V50.1737V50.1154V50.0571V49.9986V49.94V49.8814V49.8226V49.7638V49.7049V49.6459V49.5868V49.5276V49.4683V49.4089V49.3495V49.2899V49.2303V49.1706V49.1108V49.051V48.991V48.931V48.8709V48.8107V48.7505V48.6901V48.6297V48.5692V48.5087V48.448V48.3873V48.3266V48.2657V48.2048V48.1438V48.0827V48.0216V47.9604V47.8991V47.8378V47.7763V47.7149V47.6533V47.5917V47.5301V47.4684V47.4066V47.3447V47.2828V47.2208V47.1588V47.0967V47.0346V46.9724V46.9101V46.8478V46.7854V46.723V46.6606V46.598V46.5354V46.4728V46.4101V46.3474V46.2846V46.2218V46.1589V46.096V46.0331V45.97V45.907V45.8439V45.7807V45.7176V45.6543V45.5911V45.5278V45.4644V45.401V45.3376V45.2741V45.2106V45.1471V45.0835V45.0199V44.9563V44.8926V44.8289V44.7652V44.7015V44.6377V44.5738V44.51V44.4461V44.3822V44.3183V44.2543V44.1903V44.1263V44.0623V43.9982V43.9342V43.8701V43.806V43.7418V43.6777V43.6135V43.5493V43.4851V43.4209V43.3566V43.2924V43.2281V43.1638V43.0995V43.0352V42.9709V42.9066V42.8423V42.7779V42.7136V42.6492V42.5848V42.5205V42.4561V42.3917V42.3273V42.2629V42.1985V42.1341V42.0697V42.0053V41.9409V41.8765V41.8122V41.7478V41.6834V41.619V41.5546V41.4902V41.4259V41.3615V41.2972V41.2328V41.1685V41.1042V41.0399V40.9756V40.9113V40.847V40.7827V40.7185V40.6543V40.59V40.5258V40.4617V40.3975V40.3333V40.2692V40.2051V40.141V40.077V40.0129V39.9489V39.8849V39.8209V39.757V39.6931V39.6292V39.5653V39.5015V39.4377V39.3739V39.3101V39.2464V39.1827V39.1191V39.0555V38.9919V38.9283V38.8648V38.8013V38.7379V38.6825Z" fill="black"/><text x="0" y="115" fill="#000000" font-size="5px" font-weight="bold" font-family="'Helvetica Neue', Helvetica, Arial-Unicode, Arial, Sans-serif">Created by Mini Symbols</text><text x="0" y="120" fill="#000000" font-size="5px" font-weight="bold" font-family="'Helvetica Neue', Helvetica, Arial-Unicode, Arial, Sans-serif">from the Noun Project</text></svg>