<svg xmlns="http://www.w3.org/2000/svg" xmlns:xlink="http://www.w3.org/1999/xlink" version="1.1" x="0px" y="0px" viewBox="0 0 100 125" enable-background="new 0 0 100 100" xml:space="preserve"><rect x="5.002" y="4.998" fill="none" width="89.996" height="90.004"/><path d="M78.836,72.502L64.672,37.646c-0.003-0.007-0.005-0.013-0.008-0.02L50.992,5.728C50.822,5.33,50.432,5.073,50,5.073  s-0.822,0.257-0.992,0.654L35.336,37.627c-0.002,0.007-0.005,0.013-0.008,0.02L21.164,72.502c-0.052,0.129-0.079,0.268-0.079,0.406  v4.064c0,0.268,0.1,0.527,0.281,0.727l2.463,2.709c0.205,0.227,0.495,0.354,0.799,0.354c0.004,0,0.007,0,0.011,0  c0.308-0.002,0.6-0.139,0.803-0.369l12.035-13.801l0.263,1.141c0.043,0.184,0.134,0.354,0.263,0.492l6.459,6.922l-3.615,10.846  c-0.044,0.133-0.063,0.271-0.053,0.412l0.493,7.514c0.031,0.479,0.374,0.877,0.842,0.982c0.467,0.104,0.948-0.111,1.18-0.531  L50,82.281l6.692,12.088c0.192,0.35,0.558,0.557,0.944,0.557c0.077,0,0.157-0.008,0.235-0.025c0.468-0.105,0.811-0.504,0.842-0.982  l0.492-7.514c0.01-0.141-0.009-0.279-0.052-0.412l-3.616-10.846l6.46-6.922c0.129-0.139,0.22-0.309,0.263-0.492l0.264-1.141  l12.034,13.801c0.202,0.23,0.494,0.367,0.804,0.369c0.003,0,0.007,0,0.01,0c0.305,0,0.595-0.127,0.8-0.354l2.463-2.709  c0.181-0.199,0.281-0.459,0.281-0.727v-4.064C78.916,72.77,78.889,72.631,78.836,72.502z M76.756,76.555l-1.366,1.504L62.761,63.576  c-0.267-0.305-0.683-0.436-1.075-0.336c-0.394,0.098-0.699,0.408-0.79,0.805l-0.674,2.918l-6.7,7.18  c-0.27,0.289-0.359,0.701-0.234,1.078l3.751,11.252L56.8,90.105l-5.855-10.576c-0.19-0.344-0.552-0.557-0.944-0.557  s-0.754,0.213-0.944,0.557L43.2,90.105l-0.237-3.633l3.75-11.252c0.125-0.377,0.035-0.789-0.234-1.078l-6.7-7.178l-0.674-2.92  c-0.091-0.396-0.396-0.707-0.79-0.805c-0.394-0.1-0.81,0.031-1.076,0.336L24.611,78.059l-1.367-1.504v-3.436l14.081-34.65L50,8.894  l12.676,29.574l14.08,34.651V76.555z"/><text x="0" y="115" fill="#000000" font-size="5px" font-weight="bold" font-family="'Helvetica Neue', Helvetica, Arial-Unicode, Arial, Sans-serif">Created by Tinashe Mugayi</text><text x="0" y="120" fill="#000000" font-size="5px" font-weight="bold" font-family="'Helvetica Neue', Helvetica, Arial-Unicode, Arial, Sans-serif">from the Noun Project</text></svg>