<svg xmlns="http://www.w3.org/2000/svg" xmlns:xlink="http://www.w3.org/1999/xlink" version="1.1" x="0px" y="0px" viewBox="0 0 32 40" enable-background="new 0 0 32 32" xml:space="preserve"><path d="M9.536,7.813c0.535,0,0.969-0.433,0.969-0.969V2.969C10.504,2.434,10.07,2,9.536,2H9.051C8.516,2,8.082,2.434,8.082,2.969  v3.875c0,0.536,0.434,0.969,0.969,0.969H9.536z"/><path d="M22.949,7.813c0.535,0,0.969-0.433,0.969-0.969V2.969C23.918,2.434,23.484,2,22.949,2h-0.484  c-0.535,0-0.969,0.434-0.969,0.969v3.875c0,0.536,0.434,0.969,0.969,0.969H22.949z"/><path d="M28.838,4.613h-4.271v2.231c0,0.893-0.726,1.619-1.619,1.619h-0.484c-0.893,0-1.619-0.726-1.619-1.619V4.613h-9.691v2.231  c0,0.893-0.726,1.619-1.619,1.619H9.051c-0.893,0-1.619-0.726-1.619-1.619V4.613H3.162c-0.642,0-1.163,0.521-1.163,1.163v23.062  C1.999,29.479,2.52,30,3.162,30h25.677c0.642,0,1.163-0.521,1.163-1.162V5.776C30.001,5.134,29.48,4.613,28.838,4.613z   M28.257,28.256H3.743V10.733h24.515V28.256z"/><path d="M10.313,15.063h2.494c0.241,0,0.437-0.196,0.437-0.437v-1.894c0-0.24-0.196-0.436-0.437-0.436h-2.494  c-0.241,0-0.437,0.196-0.437,0.436v1.894C9.876,14.867,10.071,15.063,10.313,15.063z"/><path d="M14.794,15.063h2.45c0.241,0,0.436-0.196,0.436-0.437v-1.894c0-0.24-0.195-0.436-0.436-0.436h-2.45  c-0.241,0-0.436,0.196-0.436,0.436v1.894C14.358,14.867,14.553,15.063,14.794,15.063z"/><path d="M19.234,15.063h2.45c0.241,0,0.436-0.196,0.436-0.437v-1.894c0-0.24-0.195-0.436-0.436-0.436h-2.45  c-0.241,0-0.436,0.196-0.436,0.436v1.894C18.798,14.867,18.994,15.063,19.234,15.063z"/><path d="M23.676,15.063h2.448c0.241,0,0.437-0.196,0.437-0.437v-1.894c0-0.24-0.196-0.436-0.437-0.436h-2.448  c-0.241,0-0.436,0.196-0.436,0.436v1.894C23.24,14.867,23.435,15.063,23.676,15.063z"/><path d="M5.876,18.938h2.448c0.241,0,0.436-0.194,0.436-0.437v-1.893c0-0.24-0.195-0.436-0.436-0.436H5.876  c-0.241,0-0.437,0.196-0.437,0.436v1.893C5.439,18.744,5.635,18.938,5.876,18.938z"/><path d="M10.313,18.938h2.494c0.241,0,0.437-0.194,0.437-0.437v-1.893c0-0.24-0.196-0.436-0.437-0.436h-2.494  c-0.241,0-0.437,0.196-0.437,0.436v1.893C9.876,18.744,10.071,18.938,10.313,18.938z"/><path d="M14.794,18.938h2.45c0.241,0,0.436-0.194,0.436-0.437v-1.893c0-0.24-0.195-0.436-0.436-0.436h-2.45  c-0.241,0-0.436,0.196-0.436,0.436v1.893C14.358,18.744,14.553,18.938,14.794,18.938z"/><path d="M19.234,18.938h2.45c0.241,0,0.436-0.194,0.436-0.437v-1.893c0-0.24-0.195-0.436-0.436-0.436h-2.45  c-0.241,0-0.436,0.196-0.436,0.436v1.893C18.798,18.744,18.994,18.938,19.234,18.938z"/><path d="M23.676,18.938h2.448c0.241,0,0.437-0.194,0.437-0.437v-1.893c0-0.241-0.196-0.436-0.437-0.436h-2.448  c-0.241,0-0.436,0.195-0.436,0.436v1.893C23.24,18.744,23.435,18.938,23.676,18.938z"/><path d="M5.876,22.816h2.448c0.241,0,0.436-0.195,0.436-0.436v-1.894c0-0.241-0.195-0.437-0.436-0.437H5.876  c-0.241,0-0.437,0.195-0.437,0.437v1.894C5.439,22.621,5.635,22.816,5.876,22.816z"/><path d="M10.313,22.816h2.494c0.241,0,0.437-0.195,0.437-0.436v-1.894c0-0.241-0.196-0.437-0.437-0.437h-2.494  c-0.241,0-0.437,0.195-0.437,0.437v1.894C9.876,22.621,10.071,22.816,10.313,22.816z"/><path d="M14.794,22.816h2.45c0.241,0,0.436-0.195,0.436-0.436v-1.894c0-0.241-0.195-0.437-0.436-0.437h-2.45  c-0.241,0-0.436,0.195-0.436,0.437v1.894C14.358,22.621,14.553,22.816,14.794,22.816z"/><path d="M19.216,22.816h2.449c0.241,0,0.436-0.195,0.436-0.436v-1.894c0-0.241-0.195-0.437-0.436-0.437h-2.449  c-0.241,0-0.436,0.195-0.436,0.437v1.894C18.78,22.621,18.975,22.816,19.216,22.816z"/><path d="M23.657,22.816h2.448c0.241,0,0.436-0.195,0.436-0.436v-1.894c0-0.241-0.195-0.437-0.436-0.437h-2.448  c-0.241,0-0.437,0.195-0.437,0.437v1.894C23.221,22.621,23.417,22.816,23.657,22.816z"/><path d="M5.876,26.693h2.448c0.241,0,0.436-0.195,0.436-0.437v-1.892c0-0.242-0.195-0.437-0.436-0.437H5.876  c-0.241,0-0.437,0.194-0.437,0.437v1.892C5.439,26.498,5.635,26.693,5.876,26.693z"/><path d="M10.313,26.693h2.494c0.241,0,0.437-0.195,0.437-0.437v-1.892c0-0.242-0.196-0.437-0.437-0.437h-2.494  c-0.241,0-0.437,0.194-0.437,0.437v1.892C9.876,26.498,10.071,26.693,10.313,26.693z"/><path d="M14.794,26.693h2.45c0.241,0,0.436-0.195,0.436-0.437v-1.892c0-0.242-0.195-0.437-0.436-0.437h-2.45  c-0.241,0-0.436,0.194-0.436,0.437v1.892C14.358,26.498,14.553,26.693,14.794,26.693z"/><path d="M21.684,23.929h-2.45c-0.241,0-0.436,0.194-0.436,0.437v1.892c0,0.241,0.195,0.437,0.436,0.437h2.45  c0.241,0,0.436-0.195,0.436-0.437v-1.892C22.12,24.123,21.925,23.929,21.684,23.929z"/><text x="0" y="47" fill="#000000" font-size="5px" font-weight="bold" font-family="'Helvetica Neue', Helvetica, Arial-Unicode, Arial, Sans-serif">Created by Milinda Courey</text><text x="0" y="52" fill="#000000" font-size="5px" font-weight="bold" font-family="'Helvetica Neue', Helvetica, Arial-Unicode, Arial, Sans-serif">from the Noun Project</text></svg>