<svg xmlns="http://www.w3.org/2000/svg" data-name="Layer 1" viewBox="0 0 99.99 106.2875" x="0px" y="0px"><defs><style>.cls-1{fill:none;}</style></defs><title>17b</title><path class="cls-1" d="M100,62.1h0a15.08,15.08,0,0,1-15,15H31.37L18.29,92.76a2.12,2.12,0,0,1-3.74-1.44l.55-14.16h0a15.08,15.08,0,0,1-15-15V23.37A15.08,15.08,0,0,1,15,8.51H85a15.1,15.1,0,0,1,15,14.86Z" transform="translate(-0.01 -8.51)"/><path d="M85,8.51H15A15.08,15.08,0,0,0,0,23.37V62.12a15.08,15.08,0,0,0,15,15h0l-.49,14.16a2.12,2.12,0,0,0,3.76,1.44L31.39,77.14H85a15.08,15.08,0,0,0,15-15h0V23.37A15.1,15.1,0,0,0,85,8.51Z" transform="translate(-0.01 -8.51)"/><text x="0" y="100.03" fill="#000000" font-size="5px" font-weight="bold" font-family="'Helvetica Neue', Helvetica, Arial-Unicode, Arial, Sans-serif">Created by JohnnyZi</text><text x="0" y="105.03" fill="#000000" font-size="5px" font-weight="bold" font-family="'Helvetica Neue', Helvetica, Arial-Unicode, Arial, Sans-serif">from the Noun Project</text></svg>