<svg xmlns="http://www.w3.org/2000/svg" version="1.1" viewBox="-5.0 -10.0 110.0 135.0">
 <path d="m74.117 16.926c-5.2461-7.6953-14.09-12.758-24.117-12.758s-18.871 5.0625-24.117 12.758c-9.9453 1.5742-17.551 10.184-17.551 20.574 0 11.504 9.3281 20.832 20.836 20.832 1.6758 0 3.3125-0.19922 4.8828-0.57422 4.5859 2.9961 10.066 4.7422 15.949 4.7422s11.363-1.7461 15.949-4.7422c1.5703 0.375 3.207 0.57422 4.8828 0.57422 11.508 0 20.836-9.3281 20.836-20.832 0-10.391-7.6055-19-17.551-20.574z"/>
 <path d="m24.875 67.676c0.55859-2.2305-0.79688-4.4922-3.0312-5.0508-2.2305-0.55859-4.4922 0.79688-5.0508 3.0312l-2.0859 8.332c-0.55469 2.2344 0.80078 4.4961 3.0352 5.0547 2.2305 0.55859 4.4922-0.80078 5.0508-3.0312z"/>
 <path d="m83.211 67.676c0.55859-2.2305-0.80078-4.4922-3.0312-5.0508-2.2344-0.55859-4.4961 0.79688-5.0547 3.0312l-2.082 8.332c-0.55859 2.2344 0.79688 4.4961 3.0312 5.0547 2.2305 0.55859 4.4922-0.80078 5.0508-3.0312z"/>
 <path d="m54.043 76.012c0.55859-2.2344-0.79688-4.4961-3.0312-5.0547-2.2344-0.55859-4.4961 0.80078-5.0547 3.0312l-2.082 8.3359c-0.55859 2.2305 0.80078 4.4922 3.0312 5.0508 2.2344 0.55859 4.4961-0.79688 5.0547-3.0312z"/>
 <path d="m33.211 84.344c0.55859-2.2344-0.80078-4.4961-3.0312-5.0508-2.2344-0.55859-4.4961 0.79688-5.0547 3.0312l-2.082 8.332c-0.55859 2.2344 0.79688 4.4961 3.0312 5.0508 2.2305 0.55859 4.4961-0.79688 5.0508-3.0312z"/>
 <path d="m70.711 84.344c0.55859-2.2344-0.80078-4.4961-3.0312-5.0508-2.2344-0.55859-4.4961 0.79688-5.0547 3.0312l-2.082 8.332c-0.55859 2.2344 0.79688 4.4961 3.0312 5.0508 2.2305 0.55859 4.4922-0.79688 5.0508-3.0312z"/>
<text x="0.0" y="117.5" font-size="5.0" font-weight="bold" font-family="Arbeit Regular, Helvetica, Arial-Unicode, Arial, Sans-serif" fill="#000000">Created by Komardews</text><text x="0.0" y="122.5" font-size="5.0" font-weight="bold" font-family="Arbeit Regular, Helvetica, Arial-Unicode, Arial, Sans-serif" fill="#000000">from Noun Project</text></svg>