<svg xmlns="http://www.w3.org/2000/svg" xmlns:xlink="http://www.w3.org/1999/xlink" version="1.1" x="0px" y="0px" viewBox="0 0 512 640" enable-background="new 0 0 512 512" xml:space="preserve"><path d="M391.852,265.525c2.651-6.03,4.133-12.691,4.133-19.701c0-27.072-21.946-49.018-49.018-49.018  c-6.61,0-12.911,1.316-18.665,3.688c-3.758-30.68-29.886-54.446-61.581-54.446c-25.174,0-46.831,14.997-56.567,36.536  c-5.397-2.044-11.244-3.173-17.357-3.173c-27.072,0-49.018,21.946-49.018,49.018c0,3.226,0.321,6.376,0.915,9.428  c-19.787,6.306-34.121,24.829-34.121,46.706c0,24.334,17.735,44.515,40.982,48.351c6.101,27.869,30.913,48.736,60.613,48.736  c18.039,0,34.273-7.702,45.613-19.99c8.864,12.655,23.544,20.938,40.168,20.938c21.024,0,38.95-13.239,45.913-31.833  c6.407,3.072,13.584,4.794,21.164,4.794c27.072,0,49.018-21.946,49.018-49.018C414.043,289.377,405.212,274.281,391.852,265.525z"/><path d="M442.783,60.448c-0.34,0-0.675,0.016-1.013,0.026C437.893,44.148,423.227,32,405.714,32  c-13.565,0-25.423,7.291-31.884,18.163c-3.451-1.062-7.116-1.636-10.916-1.636c-20.473,0-37.069,16.596-37.069,37.069  c0,19.192,14.585,34.977,33.275,36.877c5.397,13.798,18.815,23.576,34.525,23.576c12.8,0,24.084-6.487,30.745-16.353  c5.422,3.106,11.697,4.89,18.393,4.89c20.473,0,37.069-16.596,37.069-37.069S463.256,60.448,442.783,60.448z"/><circle cx="109.528" cy="99.898" r="31.034"/><circle cx="393.783" cy="448.966" r="31.034"/><path d="M132.906,411.034c0-17.616-14.281-31.897-31.897-31.897c-12.145,0-22.703,6.789-28.091,16.778  c-2.818-0.815-5.794-1.261-8.875-1.261c-17.616,0-31.897,14.281-31.897,31.897s14.281,31.897,31.897,31.897  c0.574,0,1.143-0.017,1.709-0.047C70.038,470.962,81.93,480,95.941,480c17.616,0,31.897-14.281,31.897-31.897  c0-5.441-1.366-10.562-3.768-15.045C129.54,427.333,132.906,419.579,132.906,411.034z"/><text x="0" y="527" fill="#000000" font-size="5px" font-weight="bold" font-family="'Helvetica Neue', Helvetica, Arial-Unicode, Arial, Sans-serif">by Muhammad Nur Auliady Pamungkas</text><text x="0" y="532" fill="#000000" font-size="5px" font-weight="bold" font-family="'Helvetica Neue', Helvetica, Arial-Unicode, Arial, Sans-serif">from the Noun Project</text></svg>