<svg xmlns="http://www.w3.org/2000/svg" viewBox="0 0 24 30" x="0px" y="0px"><g><path d="M22,11h-.586l.293-.293a1,1,0,0,0-1.414-1.414L18.586,11H14.414l3-3H20a1,1,0,0,0,0-2h-.586l.364-.364a1,1,0,0,0-1.414-1.414L18,4.586V4a1,1,0,0,0-2,0V6.586l-3,3V5.414l1.707-1.707a1,1,0,1,0-1.414-1.414L13,2.586V2a1,1,0,0,0-2,0v.586l-.293-.293A1,1,0,0,0,9.293,3.707L11,5.414V9.586l-3-3V4A1,1,0,0,0,6,4v.586l-.364-.364A1,1,0,0,0,4.222,5.636L4.586,6H4A1,1,0,0,0,4,8H6.586l3,3H5.414L3.707,9.293a1,1,0,0,0-1.414,1.414L2.586,11H2a1,1,0,0,0,0,2h.586l-.293.293a1,1,0,1,0,1.414,1.414L5.414,13H9.586l-3,3H4a1,1,0,0,0,0,2h.586l-.364.364a1,1,0,1,0,1.414,1.414L6,19.414V20a1,1,0,0,0,2,0V17.414l3-3v4.172L9.293,20.293a1,1,0,0,0,1.414,1.414L11,21.414V22a1,1,0,0,0,2,0v-.586l.293.293a1,1,0,0,0,1.414-1.414L13,18.586V14.414l3,3V20a1,1,0,0,0,2,0v-.586l.364.364a1,1,0,0,0,1.414-1.414L19.414,18H20a1,1,0,0,0,0-2H17.414l-3-3h4.172l1.707,1.707a1,1,0,0,0,1.414-1.414L21.414,13H22a1,1,0,0,0,0-2Z"/></g><text x="0" y="39" fill="#000000" font-size="5px" font-weight="bold" font-family="'Helvetica Neue', Helvetica, Arial-Unicode, Arial, Sans-serif">Created by Komardews</text><text x="0" y="44" fill="#000000" font-size="5px" font-weight="bold" font-family="'Helvetica Neue', Helvetica, Arial-Unicode, Arial, Sans-serif">from the Noun Project</text></svg>