<svg xmlns="http://www.w3.org/2000/svg" version="1.1" viewBox="-5.0 -10.0 110.0 135.0">
 <path d="m29.168 70.832c-1.1055 0-2.168 0.44141-2.9492 1.2227s-1.2188 1.8398-1.2188 2.9453c0 3.3164-1.3164 6.4961-3.6602 8.8398s-5.5234 3.6602-8.8398 3.6602c-1.1055 0-2.1641 0.4375-2.9453 1.2188s-1.2227 1.8438-1.2227 2.9492 0.44141 2.1641 1.2227 2.9453 1.8398 1.2188 2.9453 1.2188c5.5234-0.003906 10.82-2.2031 14.723-6.1094 3.9062-3.9062 6.1055-9.1992 6.1094-14.723 0-1.1055-0.4375-2.1641-1.2188-2.9453s-1.8398-1.2227-2.9453-1.2227z"/>
 <path d="m54.168 70.832c-1.1055 0-2.168 0.44141-2.9492 1.2227s-1.2188 1.8398-1.2188 2.9453c0 3.3164-1.3164 6.4961-3.6602 8.8398s-5.5234 3.6602-8.8398 3.6602c-1.1055 0-2.1641 0.4375-2.9453 1.2188s-1.2227 1.8438-1.2227 2.9492 0.44141 2.1641 1.2227 2.9453 1.8398 1.2188 2.9453 1.2188c5.5234-0.003906 10.816-2.2031 14.723-6.1094s6.1055-9.1992 6.1094-14.723c0-1.1055-0.4375-2.1641-1.2188-2.9453s-1.8398-1.2227-2.9453-1.2227z"/>
 <path d="m76.219 72.055c0.78125-0.78125 1.8438-1.2227 2.9492-1.2227s2.1641 0.44141 2.9453 1.2227 1.2188 1.8398 1.2188 2.9453c-0.003906 5.5234-2.2031 10.816-6.1094 14.723s-9.1992 6.1055-14.723 6.1094c-1.1055 0-2.1641-0.4375-2.9453-1.2188s-1.2227-1.8398-1.2227-2.9453 0.44141-2.168 1.2227-2.9492 1.8398-1.2188 2.9453-1.2188c3.3164 0 6.4961-1.3164 8.8398-3.6602s3.6602-5.5234 3.6602-8.8398c0-1.1055 0.4375-2.1641 1.2188-2.9453z"/>
 <path d="m50 4.168c10.027 0 18.871 5.0625 24.117 12.758 9.9453 1.5742 17.551 10.184 17.551 20.574 0 11.504-9.3281 20.832-20.836 20.832-1.6758 0-3.3125-0.19922-4.8828-0.57422-4.5859 2.9961-10.066 4.7422-15.949 4.7422s-11.363-1.7461-15.949-4.7422c-1.5703 0.375-3.207 0.57422-4.8828 0.57422-11.508 0-20.836-9.3281-20.836-20.832 0-10.391 7.6055-19 17.551-20.574 5.2461-7.6953 14.09-12.758 24.117-12.758z"/>
<text x="0.0" y="117.5" font-size="5.0" font-weight="bold" font-family="Arbeit Regular, Helvetica, Arial-Unicode, Arial, Sans-serif" fill="#000000">Created by Komardews</text><text x="0.0" y="122.5" font-size="5.0" font-weight="bold" font-family="Arbeit Regular, Helvetica, Arial-Unicode, Arial, Sans-serif" fill="#000000">from Noun Project</text></svg>