<svg xmlns="http://www.w3.org/2000/svg" viewBox="0 0 24 30" x="0px" y="0px"><g><circle cx="12" cy="12" r="6"/><path d="M12,5a1,1,0,0,0,1-1V2a1,1,0,0,0-2,0V4A1,1,0,0,0,12,5Z"/><path d="M12,19a1,1,0,0,0-1,1v2a1,1,0,0,0,2,0V20A1,1,0,0,0,12,19Z"/><path d="M5,12a1,1,0,0,0-1-1H2a1,1,0,0,0,0,2H4A1,1,0,0,0,5,12Z"/><path d="M22,11H20a1,1,0,0,0,0,2h2a1,1,0,0,0,0-2Z"/><path d="M5.636,7.05A1,1,0,0,0,7.05,5.636L5.636,4.222A1,1,0,0,0,4.222,5.636Z"/><path d="M18.364,16.95a1,1,0,0,0-1.414,1.414l1.414,1.414a1,1,0,0,0,1.414-1.414Z"/><path d="M17.657,7.343a1,1,0,0,0,.707-.293l1.414-1.414a1,1,0,0,0-1.414-1.414L16.95,5.636a1,1,0,0,0,.707,1.707Z"/><path d="M5.636,16.95,4.222,18.364a1,1,0,1,0,1.414,1.414L7.05,18.364A1,1,0,0,0,5.636,16.95Z"/></g><text x="0" y="39" fill="#000000" font-size="5px" font-weight="bold" font-family="'Helvetica Neue', Helvetica, Arial-Unicode, Arial, Sans-serif">Created by Komardews</text><text x="0" y="44" fill="#000000" font-size="5px" font-weight="bold" font-family="'Helvetica Neue', Helvetica, Arial-Unicode, Arial, Sans-serif">from the Noun Project</text></svg>