<svg xmlns="http://www.w3.org/2000/svg" version="1.1" viewBox="-5.0 -10.0 110.0 135.0">
 <path d="m74.117 16.926c-5.2461-7.6953-14.09-12.758-24.117-12.758s-18.871 5.0625-24.117 12.758c-9.9453 1.5742-17.551 10.184-17.551 20.574 0 11.504 9.3281 20.832 20.836 20.832 1.6758 0 3.3125-0.19922 4.8828-0.57422 4.5859 2.9961 10.066 4.7422 15.949 4.7422s11.363-1.7461 15.949-4.7422c1.5703 0.375 3.207 0.57422 4.8828 0.57422 11.508 0 20.836-9.3281 20.836-20.832 0-10.391-7.6055-19-17.551-20.574z"/>
 <path d="m35.492 75.285c0.59375-2.2227-0.72266-4.5078-2.9453-5.1055-2.2227-0.59375-4.5078 0.72266-5.1055 2.9492l-2.1562 8.0469c-0.59375 2.2227 0.72266 4.5078 2.9453 5.1055l4.0273 1.0781-1.0781 4.0234c-0.59766 2.2227 0.72266 4.5078 2.9453 5.1016 2.2227 0.59766 4.5078-0.72266 5.1016-2.9453l2.1562-8.0508c0.59766-2.2227-0.72266-4.5039-2.9453-5.1016l-4.0234-1.0781z"/>
 <path d="m56.324 75.285c0.59766-2.2227-0.72266-4.5078-2.9453-5.1055-2.2227-0.59375-4.5078 0.72266-5.1016 2.9492l-2.1602 8.0469c-0.59375 2.2227 0.72656 4.5078 2.9492 5.1055l4.0234 1.0781-1.0781 4.0234c-0.59766 2.2227 0.72266 4.5078 2.9453 5.1016 2.2227 0.59766 4.5078-0.72266 5.1055-2.9453l2.1562-8.0508c0.59375-2.2227-0.72266-4.5039-2.9492-5.1016l-4.0234-1.0781z"/>
 <path d="m74.211 70.18c2.2227 0.59766 3.543 2.8828 2.9492 5.1055l-1.082 4.0234 4.0273 1.0781c2.2227 0.59766 3.5391 2.8789 2.9453 5.1016l-2.1562 8.0508c-0.59766 2.2227-2.8789 3.543-5.1055 2.9453-2.2227-0.59375-3.5391-2.8789-2.9453-5.1016l1.0781-4.0234-4.0234-1.0781c-2.2227-0.59766-3.543-2.8828-2.9453-5.1055l2.1562-8.0469c0.59375-2.2266 2.8789-3.543 5.1016-2.9492z"/>
<text x="0.0" y="117.5" font-size="5.0" font-weight="bold" font-family="Arbeit Regular, Helvetica, Arial-Unicode, Arial, Sans-serif" fill="#000000">Created by Komardews</text><text x="0.0" y="122.5" font-size="5.0" font-weight="bold" font-family="Arbeit Regular, Helvetica, Arial-Unicode, Arial, Sans-serif" fill="#000000">from Noun Project</text></svg>