<svg xmlns="http://www.w3.org/2000/svg" version="1.1" viewBox="-5.0 -10.0 110.0 135.0">
 <path d="m50 16.668c10.828 0 20.449 5.1641 26.531 13.152 11.062 2.582 19.301 12.496 19.301 24.348 0 13.805-11.191 25-25 25-1.3906 0-2.7617-0.11719-4.0938-0.33594-4.9219 2.8633-10.645 4.5-16.738 4.5s-11.816-1.6367-16.738-4.5c-1.332 0.21875-2.7031 0.33594-4.0938 0.33594-13.809 0-25-11.195-25-25 0-11.852 8.2383-21.766 19.301-24.348 6.082-7.9883 15.703-13.152 26.531-13.152z"/>
<text x="0.0" y="117.5" font-size="5.0" font-weight="bold" font-family="Arbeit Regular, Helvetica, Arial-Unicode, Arial, Sans-serif" fill="#000000">Created by Komardews</text><text x="0.0" y="122.5" font-size="5.0" font-weight="bold" font-family="Arbeit Regular, Helvetica, Arial-Unicode, Arial, Sans-serif" fill="#000000">from Noun Project</text></svg>