<svg xmlns="http://www.w3.org/2000/svg" viewBox="0 0 24 30" x="0px" y="0px"><g data-name="Clear Night"><path d="M10,9a6.954,6.954,0,0,1,1.06-3.7A7.327,7.327,0,0,0,9,5a7,7,0,1,0,5.94,10.7A7.023,7.023,0,0,1,10,9Z"/><path d="M22.948,6.738a1,1,0,0,0-.8-.671l-2.236-.341-1.01-2.151a1,1,0,0,0-1.81,0l-1.01,2.151-2.236.341a1,1,0,0,0-.565,1.687l1.648,1.688-.391,2.4a1,1,0,0,0,1.471,1.036L18,11.776l1.988,1.1a1,1,0,0,0,1.06-.058,1,1,0,0,0,.411-.978l-.391-2.4,1.648-1.688A1,1,0,0,0,22.948,6.738Z"/></g><text x="0" y="39" fill="#000000" font-size="5px" font-weight="bold" font-family="'Helvetica Neue', Helvetica, Arial-Unicode, Arial, Sans-serif">Created by Komardews</text><text x="0" y="44" fill="#000000" font-size="5px" font-weight="bold" font-family="'Helvetica Neue', Helvetica, Arial-Unicode, Arial, Sans-serif">from the Noun Project</text></svg>